<svg width="19" height="20" viewBox="0 0 19 20" fill="none" xmlns="http://www.w3.org/2000/svg">
<path d="M17.9201 8.17995L10.2101 0.299949C10.0223 0.110636 9.76675 0.00415039 9.50012 0.00415039C9.23348 0.00415039 8.97788 0.110636 8.79012 0.299949L1.08012 8.18995C0.703271 8.56983 0.494369 9.08489 0.500116 9.61995V17.9999C0.498507 19.0629 1.32872 19.9415 2.39011 19.9999H16.6101C17.6715 19.9415 18.5017 19.0629 18.5001 17.9999V9.61995C18.5009 9.08288 18.2929 8.56653 17.9201 8.17995V8.17995ZM7.50012 17.9999V11.9999H11.5001V17.9999H7.50012ZM16.5001 17.9999H13.5001V10.9999C13.5001 10.4477 13.0524 9.99995 12.5001 9.99995H6.50012C5.94783 9.99995 5.50012 10.4477 5.50012 10.9999V17.9999H2.50012V9.57995L9.50012 2.42995L16.5001 9.61995V17.9999Z" fill="#393939"/>
</svg>
