<svg width="25" height="24" viewBox="0 0 25 24" fill="none" xmlns="http://www.w3.org/2000/svg">
<path d="M19.8998 7.3401L17.1598 4.6001C16.4195 3.90476 15.2756 3.87466 14.4998 4.5301L5.49981 13.5301C5.17658 13.8561 4.97532 14.2833 4.92981 14.7401L4.49981 18.9101C4.47254 19.2066 4.57885 19.4999 4.78981 19.7101C4.97853 19.8973 5.23401 20.0016 5.49981 20.0001H5.58981L9.75981 19.6201C10.2166 19.5746 10.6438 19.3733 10.9698 19.0501L19.9698 10.0501C20.6971 9.28177 20.6658 8.06987 19.8998 7.34011L19.8998 7.3401ZM9.57981 17.6201L6.57981 17.9001L6.84981 14.9001L12.4998 9.3201L15.1998 12.0201L9.57981 17.6201ZM16.4998 10.6801L13.8198 8.0001L15.7698 6.0001L18.4998 8.7301L16.4998 10.6801Z" fill="#393939"/>
</svg>
