<svg width="24" height="24" fill="none" xmlns="http://www.w3.org/2000/svg"><path d="M8.368 11.232V9.555c0-.278.225-.504.503-.504h1.677c.278 0 .503.226.503.504v1.677a.503.503 0 01-.503.503H8.871a.503.503 0 01-.503-.503zm5.87.503h1.678a.503.503 0 00.503-.503V9.555a.503.503 0 00-.503-.504h-1.678a.503.503 0 00-.503.504v1.677c0 .278.226.503.503.503zm-3.187 3.523V13.58a.503.503 0 00-.503-.503H8.871a.503.503 0 00-.503.503v1.678c0 .278.225.503.503.503h1.677a.503.503 0 00.503-.503zm3.187.503h1.678a.503.503 0 00.503-.503V13.58a.503.503 0 00-.503-.503h-1.678a.503.503 0 00-.503.503v1.678c0 .278.226.503.503.503zm7.549 5.2v1.51H3v-1.51c0-.278.225-.503.503-.503h.818V4.566c0-.487.45-.882 1.006-.882H9.04V2.006C9.04 1.451 9.49 1 10.046 1h4.697c.555 0 1.006.45 1.006 1.006v1.678h3.711c.556 0 1.007.395 1.007.882v15.892h.817c.278 0 .504.225.504.503zm-15.453-.545h4.717v-2.81c0-.278.226-.503.504-.503h1.677c.278 0 .503.225.503.503v2.81h4.718V5.696h-2.705v1.007c0 .556-.45 1.007-1.006 1.007h-4.697a1.006 1.006 0 01-1.006-1.007V5.697H6.334v14.719zm7.82-16.732h-1.09v-1.09a.252.252 0 00-.251-.252h-.839a.252.252 0 00-.252.252v1.09h-1.09a.252.252 0 00-.252.251v.84c0 .138.113.25.252.25h1.09v1.091c0 .139.113.252.252.252h.839a.252.252 0 00.251-.252v-1.09h1.09a.252.252 0 00.252-.252v-.839a.252.252 0 00-.251-.251z" fill="#393939"/></svg>